<mxfile host="app.diagrams.net" modified="2021-02-25T01:33:35.102Z" agent="5.0 (Windows NT 10.0; Win64; x64) AppleWebKit/537.36 (KHTML, like Gecko) Chrome/88.0.4324.190 Safari/537.36" etag="QdXFU3E7BROIP0AcFilK" version="14.4.3" type="github" pages="2">
  <diagram id="Ko7BzfuPDwPHrhIKAzi-" name="Page-1">
    <mxGraphModel dx="1422" dy="794" grid="1" gridSize="10" guides="1" tooltips="1" connect="1" arrows="1" fold="1" page="1" pageScale="1" pageWidth="827" pageHeight="1169" math="0" shadow="0">
      <root>
        <mxCell id="0" />
        <mxCell id="1" parent="0" />
        <mxCell id="6E7H-M721nzw7SIb3JZd-1" value="HIS :springboot" style="swimlane;" vertex="1" parent="1">
          <mxGeometry x="230" y="10" width="440" height="570" as="geometry" />
        </mxCell>
        <mxCell id="6E7H-M721nzw7SIb3JZd-2" value="mybais-plus" style="rounded=1;whiteSpace=wrap;html=1;" vertex="1" parent="6E7H-M721nzw7SIb3JZd-1">
          <mxGeometry x="70" y="420" width="120" height="60" as="geometry" />
        </mxCell>
        <mxCell id="6E7H-M721nzw7SIb3JZd-3" value="sharding" style="rounded=1;whiteSpace=wrap;html=1;" vertex="1" parent="6E7H-M721nzw7SIb3JZd-1">
          <mxGeometry x="70" y="480" width="120" height="60" as="geometry" />
        </mxCell>
        <mxCell id="6E7H-M721nzw7SIb3JZd-4" value="cfx-webservice" style="rounded=1;whiteSpace=wrap;html=1;" vertex="1" parent="6E7H-M721nzw7SIb3JZd-1">
          <mxGeometry x="-40" y="320" width="120" height="60" as="geometry" />
        </mxCell>
        <mxCell id="6E7H-M721nzw7SIb3JZd-5" value="Business" style="rounded=0;whiteSpace=wrap;html=1;" vertex="1" parent="6E7H-M721nzw7SIb3JZd-1">
          <mxGeometry x="170" y="170" width="130" height="140" as="geometry" />
        </mxCell>
        <mxCell id="6E7H-M721nzw7SIb3JZd-6" value="Log/ Authentic&amp;nbsp;" style="rounded=1;whiteSpace=wrap;html=1;" vertex="1" parent="6E7H-M721nzw7SIb3JZd-1">
          <mxGeometry x="170" y="120" width="130" height="50" as="geometry" />
        </mxCell>
        <mxCell id="6E7H-M721nzw7SIb3JZd-7" style="edgeStyle=orthogonalEdgeStyle;rounded=0;orthogonalLoop=1;jettySize=auto;html=1;entryX=0.5;entryY=1;entryDx=0;entryDy=0;" edge="1" parent="1" source="6E7H-M721nzw7SIb3JZd-9" target="6E7H-M721nzw7SIb3JZd-3">
          <mxGeometry relative="1" as="geometry" />
        </mxCell>
        <mxCell id="6E7H-M721nzw7SIb3JZd-8" style="edgeStyle=orthogonalEdgeStyle;rounded=0;orthogonalLoop=1;jettySize=auto;html=1;entryX=1;entryY=0.5;entryDx=0;entryDy=0;" edge="1" parent="1" source="6E7H-M721nzw7SIb3JZd-9" target="6E7H-M721nzw7SIb3JZd-28">
          <mxGeometry relative="1" as="geometry">
            <mxPoint x="60" y="700" as="targetPoint" />
            <Array as="points">
              <mxPoint x="233" y="675" />
              <mxPoint x="233" y="605" />
            </Array>
          </mxGeometry>
        </mxCell>
        <mxCell id="6E7H-M721nzw7SIb3JZd-9" value="MySQL" style="shape=datastore;whiteSpace=wrap;html=1;" vertex="1" parent="1">
          <mxGeometry x="305" y="620" width="110" height="110" as="geometry" />
        </mxCell>
        <mxCell id="6E7H-M721nzw7SIb3JZd-10" style="edgeStyle=orthogonalEdgeStyle;rounded=0;orthogonalLoop=1;jettySize=auto;html=1;entryX=0;entryY=0.25;entryDx=0;entryDy=0;" edge="1" parent="1" source="6E7H-M721nzw7SIb3JZd-11" target="6E7H-M721nzw7SIb3JZd-15">
          <mxGeometry relative="1" as="geometry" />
        </mxCell>
        <mxCell id="6E7H-M721nzw7SIb3JZd-11" value="rabbitMQ" style="strokeWidth=2;html=1;shape=mxgraph.flowchart.direct_data;whiteSpace=wrap;" vertex="1" parent="1">
          <mxGeometry x="730" y="220" width="100" height="60" as="geometry" />
        </mxCell>
        <mxCell id="6E7H-M721nzw7SIb3JZd-12" value="redis" style="strokeWidth=2;html=1;shape=mxgraph.flowchart.database;whiteSpace=wrap;" vertex="1" parent="1">
          <mxGeometry x="740" y="340" width="80" height="80" as="geometry" />
        </mxCell>
        <mxCell id="6E7H-M721nzw7SIb3JZd-13" style="edgeStyle=orthogonalEdgeStyle;rounded=0;orthogonalLoop=1;jettySize=auto;html=1;entryX=1;entryY=0.5;entryDx=0;entryDy=0;entryPerimeter=0;" edge="1" parent="1" source="6E7H-M721nzw7SIb3JZd-15" target="6E7H-M721nzw7SIb3JZd-12">
          <mxGeometry relative="1" as="geometry" />
        </mxCell>
        <mxCell id="6E7H-M721nzw7SIb3JZd-14" style="edgeStyle=orthogonalEdgeStyle;rounded=0;orthogonalLoop=1;jettySize=auto;html=1;entryX=1;entryY=0.5;entryDx=0;entryDy=0;exitX=0.5;exitY=1;exitDx=0;exitDy=0;" edge="1" parent="1" source="6E7H-M721nzw7SIb3JZd-15" target="6E7H-M721nzw7SIb3JZd-9">
          <mxGeometry relative="1" as="geometry">
            <Array as="points">
              <mxPoint x="1025" y="675" />
            </Array>
          </mxGeometry>
        </mxCell>
        <mxCell id="6E7H-M721nzw7SIb3JZd-15" value="parcharmy" style="swimlane;startSize=23;" vertex="1" parent="1">
          <mxGeometry x="950" y="220" width="150" height="190" as="geometry" />
        </mxCell>
        <mxCell id="6E7H-M721nzw7SIb3JZd-16" style="edgeStyle=orthogonalEdgeStyle;rounded=0;orthogonalLoop=1;jettySize=auto;html=1;entryX=0.5;entryY=1;entryDx=0;entryDy=0;" edge="1" parent="1" source="6E7H-M721nzw7SIb3JZd-17" target="6E7H-M721nzw7SIb3JZd-9">
          <mxGeometry relative="1" as="geometry" />
        </mxCell>
        <mxCell id="6E7H-M721nzw7SIb3JZd-17" value="MySQL" style="shape=datastore;whiteSpace=wrap;html=1;" vertex="1" parent="1">
          <mxGeometry x="120" y="770" width="110" height="110" as="geometry" />
        </mxCell>
        <mxCell id="6E7H-M721nzw7SIb3JZd-18" style="edgeStyle=orthogonalEdgeStyle;rounded=0;orthogonalLoop=1;jettySize=auto;html=1;" edge="1" parent="1" source="6E7H-M721nzw7SIb3JZd-19" target="6E7H-M721nzw7SIb3JZd-9">
          <mxGeometry relative="1" as="geometry" />
        </mxCell>
        <mxCell id="6E7H-M721nzw7SIb3JZd-19" value="MySQL" style="shape=datastore;whiteSpace=wrap;html=1;" vertex="1" parent="1">
          <mxGeometry x="480" y="770" width="110" height="110" as="geometry" />
        </mxCell>
        <mxCell id="6E7H-M721nzw7SIb3JZd-20" value="PACS/LIS/OTRERS" style="swimlane;" vertex="1" parent="1">
          <mxGeometry x="10" y="80" width="150" height="180" as="geometry" />
        </mxCell>
        <mxCell id="6E7H-M721nzw7SIb3JZd-21" value="" style="strokeWidth=2;html=1;shape=mxgraph.flowchart.database;whiteSpace=wrap;" vertex="1" parent="6E7H-M721nzw7SIb3JZd-20">
          <mxGeometry x="10" y="70" width="60" height="60" as="geometry" />
        </mxCell>
        <mxCell id="6E7H-M721nzw7SIb3JZd-22" style="edgeStyle=orthogonalEdgeStyle;rounded=0;orthogonalLoop=1;jettySize=auto;html=1;entryX=0.5;entryY=1;entryDx=0;entryDy=0;" edge="1" parent="1" source="6E7H-M721nzw7SIb3JZd-23" target="6E7H-M721nzw7SIb3JZd-20">
          <mxGeometry relative="1" as="geometry" />
        </mxCell>
        <mxCell id="6E7H-M721nzw7SIb3JZd-23" value="webSocket" style="rounded=1;whiteSpace=wrap;html=1;" vertex="1" parent="1">
          <mxGeometry x="190" y="270" width="120" height="60" as="geometry" />
        </mxCell>
        <mxCell id="6E7H-M721nzw7SIb3JZd-24" style="edgeStyle=orthogonalEdgeStyle;rounded=0;orthogonalLoop=1;jettySize=auto;html=1;entryX=0.5;entryY=1;entryDx=0;entryDy=0;" edge="1" parent="1" source="6E7H-M721nzw7SIb3JZd-4" target="6E7H-M721nzw7SIb3JZd-20">
          <mxGeometry relative="1" as="geometry" />
        </mxCell>
        <mxCell id="6E7H-M721nzw7SIb3JZd-25" style="edgeStyle=orthogonalEdgeStyle;rounded=0;orthogonalLoop=1;jettySize=auto;html=1;" edge="1" parent="1" source="6E7H-M721nzw7SIb3JZd-5" target="6E7H-M721nzw7SIb3JZd-11">
          <mxGeometry relative="1" as="geometry" />
        </mxCell>
        <mxCell id="6E7H-M721nzw7SIb3JZd-26" style="edgeStyle=orthogonalEdgeStyle;rounded=0;orthogonalLoop=1;jettySize=auto;html=1;entryX=0;entryY=0.5;entryDx=0;entryDy=0;entryPerimeter=0;" edge="1" parent="1" source="6E7H-M721nzw7SIb3JZd-5" target="6E7H-M721nzw7SIb3JZd-12">
          <mxGeometry relative="1" as="geometry">
            <Array as="points">
              <mxPoint x="465" y="380" />
            </Array>
          </mxGeometry>
        </mxCell>
        <mxCell id="6E7H-M721nzw7SIb3JZd-27" style="edgeStyle=orthogonalEdgeStyle;rounded=0;orthogonalLoop=1;jettySize=auto;html=1;" edge="1" parent="1" source="6E7H-M721nzw7SIb3JZd-28" target="6E7H-M721nzw7SIb3JZd-21">
          <mxGeometry relative="1" as="geometry">
            <Array as="points">
              <mxPoint x="50" y="450" />
              <mxPoint x="50" y="450" />
            </Array>
          </mxGeometry>
        </mxCell>
        <mxCell id="6E7H-M721nzw7SIb3JZd-28" value="xxl-Job" style="swimlane;" vertex="1" parent="1">
          <mxGeometry x="10" y="530" width="150" height="150" as="geometry" />
        </mxCell>
      </root>
    </mxGraphModel>
  </diagram>
  <diagram id="k8K_JndzHaJMtIpid_MH" name="Page-2">
    <mxGraphModel dx="4851" dy="-3353" grid="1" gridSize="10" guides="1" tooltips="1" connect="1" arrows="1" fold="1" page="1" pageScale="1" pageWidth="827" pageHeight="1169" math="0" shadow="0">
      <root>
        <mxCell id="f9Q4ZX0UJmkfABaI8b5P-0" />
        <mxCell id="f9Q4ZX0UJmkfABaI8b5P-1" parent="f9Q4ZX0UJmkfABaI8b5P-0" />
        <mxCell id="f9Q4ZX0UJmkfABaI8b5P-2" value="门诊医生站" style="shape=parallelogram;perimeter=parallelogramPerimeter;whiteSpace=wrap;html=1;fixedSize=1;fillColor=#ffe6cc;strokeColor=#d79b00;" vertex="1" parent="f9Q4ZX0UJmkfABaI8b5P-1">
          <mxGeometry x="-2279" y="4871" width="107" height="44" as="geometry" />
        </mxCell>
        <mxCell id="f9Q4ZX0UJmkfABaI8b5P-3" style="edgeStyle=entityRelationEdgeStyle;rounded=1;sketch=0;orthogonalLoop=1;jettySize=auto;html=1;entryX=0;entryY=0.5;entryDx=0;entryDy=0;" edge="1" parent="f9Q4ZX0UJmkfABaI8b5P-1" source="f9Q4ZX0UJmkfABaI8b5P-6" target="f9Q4ZX0UJmkfABaI8b5P-8">
          <mxGeometry relative="1" as="geometry" />
        </mxCell>
        <mxCell id="f9Q4ZX0UJmkfABaI8b5P-4" style="edgeStyle=entityRelationEdgeStyle;rounded=1;sketch=0;orthogonalLoop=1;jettySize=auto;html=1;entryX=0;entryY=0.5;entryDx=0;entryDy=0;" edge="1" parent="f9Q4ZX0UJmkfABaI8b5P-1" source="f9Q4ZX0UJmkfABaI8b5P-6" target="f9Q4ZX0UJmkfABaI8b5P-10">
          <mxGeometry relative="1" as="geometry" />
        </mxCell>
        <mxCell id="f9Q4ZX0UJmkfABaI8b5P-5" style="edgeStyle=entityRelationEdgeStyle;rounded=1;sketch=0;orthogonalLoop=1;jettySize=auto;html=1;" edge="1" parent="f9Q4ZX0UJmkfABaI8b5P-1" source="f9Q4ZX0UJmkfABaI8b5P-6" target="f9Q4ZX0UJmkfABaI8b5P-13">
          <mxGeometry relative="1" as="geometry" />
        </mxCell>
        <mxCell id="f9Q4ZX0UJmkfABaI8b5P-6" value="start" style="strokeWidth=2;html=1;shape=mxgraph.flowchart.start_1;whiteSpace=wrap;" vertex="1" parent="f9Q4ZX0UJmkfABaI8b5P-1">
          <mxGeometry x="-2427" y="5059" width="100" height="60" as="geometry" />
        </mxCell>
        <mxCell id="f9Q4ZX0UJmkfABaI8b5P-7" style="edgeStyle=orthogonalEdgeStyle;rounded=1;sketch=0;orthogonalLoop=1;jettySize=auto;html=1;entryX=0.5;entryY=0;entryDx=0;entryDy=0;" edge="1" parent="f9Q4ZX0UJmkfABaI8b5P-1" source="f9Q4ZX0UJmkfABaI8b5P-8" target="f9Q4ZX0UJmkfABaI8b5P-15">
          <mxGeometry relative="1" as="geometry" />
        </mxCell>
        <mxCell id="f9Q4ZX0UJmkfABaI8b5P-8" value="预约" style="rounded=1;whiteSpace=wrap;html=1;absoluteArcSize=1;arcSize=14;strokeWidth=2;" vertex="1" parent="f9Q4ZX0UJmkfABaI8b5P-1">
          <mxGeometry x="-2256" y="5029" width="95" height="31.5" as="geometry" />
        </mxCell>
        <mxCell id="f9Q4ZX0UJmkfABaI8b5P-9" style="edgeStyle=orthogonalEdgeStyle;rounded=1;sketch=0;orthogonalLoop=1;jettySize=auto;html=1;" edge="1" parent="f9Q4ZX0UJmkfABaI8b5P-1" source="f9Q4ZX0UJmkfABaI8b5P-10">
          <mxGeometry relative="1" as="geometry">
            <mxPoint x="-2113.333333333333" y="5089" as="targetPoint" />
          </mxGeometry>
        </mxCell>
        <mxCell id="f9Q4ZX0UJmkfABaI8b5P-10" value="挂号" style="rounded=1;whiteSpace=wrap;html=1;absoluteArcSize=1;arcSize=14;strokeWidth=2;" vertex="1" parent="f9Q4ZX0UJmkfABaI8b5P-1">
          <mxGeometry x="-2256" y="5075.5" width="97" height="27" as="geometry" />
        </mxCell>
        <mxCell id="f9Q4ZX0UJmkfABaI8b5P-11" style="edgeStyle=orthogonalEdgeStyle;rounded=1;sketch=0;orthogonalLoop=1;jettySize=auto;html=1;entryX=0.5;entryY=1;entryDx=0;entryDy=0;" edge="1" parent="f9Q4ZX0UJmkfABaI8b5P-1" source="f9Q4ZX0UJmkfABaI8b5P-13" target="f9Q4ZX0UJmkfABaI8b5P-15">
          <mxGeometry relative="1" as="geometry" />
        </mxCell>
        <mxCell id="f9Q4ZX0UJmkfABaI8b5P-12" style="edgeStyle=orthogonalEdgeStyle;curved=0;rounded=1;sketch=0;orthogonalLoop=1;jettySize=auto;html=1;entryX=0.5;entryY=0;entryDx=0;entryDy=0;dashed=1;startArrow=none;startFill=0;" edge="1" parent="f9Q4ZX0UJmkfABaI8b5P-1" source="f9Q4ZX0UJmkfABaI8b5P-13" target="f9Q4ZX0UJmkfABaI8b5P-104">
          <mxGeometry relative="1" as="geometry" />
        </mxCell>
        <mxCell id="f9Q4ZX0UJmkfABaI8b5P-13" value="直接接诊" style="rounded=1;whiteSpace=wrap;html=1;absoluteArcSize=1;arcSize=14;strokeWidth=2;" vertex="1" parent="f9Q4ZX0UJmkfABaI8b5P-1">
          <mxGeometry x="-2256" y="5124.5" width="97" height="27" as="geometry" />
        </mxCell>
        <mxCell id="f9Q4ZX0UJmkfABaI8b5P-14" style="edgeStyle=orthogonalEdgeStyle;rounded=1;sketch=0;orthogonalLoop=1;jettySize=auto;html=1;entryX=0;entryY=0.5;entryDx=0;entryDy=0;" edge="1" parent="f9Q4ZX0UJmkfABaI8b5P-1" source="f9Q4ZX0UJmkfABaI8b5P-15" target="f9Q4ZX0UJmkfABaI8b5P-19">
          <mxGeometry relative="1" as="geometry" />
        </mxCell>
        <mxCell id="f9Q4ZX0UJmkfABaI8b5P-15" value="患者列表：接诊" style="rounded=1;whiteSpace=wrap;html=1;absoluteArcSize=1;arcSize=14;strokeWidth=2;" vertex="1" parent="f9Q4ZX0UJmkfABaI8b5P-1">
          <mxGeometry x="-2111" y="5073.25" width="95" height="31.5" as="geometry" />
        </mxCell>
        <mxCell id="f9Q4ZX0UJmkfABaI8b5P-16" style="edgeStyle=orthogonalEdgeStyle;rounded=1;sketch=0;orthogonalLoop=1;jettySize=auto;html=1;" edge="1" parent="f9Q4ZX0UJmkfABaI8b5P-1" source="f9Q4ZX0UJmkfABaI8b5P-19" target="f9Q4ZX0UJmkfABaI8b5P-32">
          <mxGeometry relative="1" as="geometry" />
        </mxCell>
        <mxCell id="f9Q4ZX0UJmkfABaI8b5P-17" style="edgeStyle=orthogonalEdgeStyle;rounded=1;sketch=0;orthogonalLoop=1;jettySize=auto;html=1;entryX=0;entryY=0.5;entryDx=0;entryDy=0;" edge="1" parent="f9Q4ZX0UJmkfABaI8b5P-1" source="f9Q4ZX0UJmkfABaI8b5P-19" target="f9Q4ZX0UJmkfABaI8b5P-112">
          <mxGeometry relative="1" as="geometry">
            <mxPoint x="-1790" y="5108.0344827586205" as="targetPoint" />
          </mxGeometry>
        </mxCell>
        <mxCell id="f9Q4ZX0UJmkfABaI8b5P-18" style="edgeStyle=orthogonalEdgeStyle;curved=0;rounded=1;sketch=0;orthogonalLoop=1;jettySize=auto;html=1;dashed=1;startArrow=none;startFill=0;" edge="1" parent="f9Q4ZX0UJmkfABaI8b5P-1" source="f9Q4ZX0UJmkfABaI8b5P-19" target="f9Q4ZX0UJmkfABaI8b5P-94">
          <mxGeometry relative="1" as="geometry">
            <Array as="points">
              <mxPoint x="-1903" y="4994" />
              <mxPoint x="-1566" y="4994" />
            </Array>
          </mxGeometry>
        </mxCell>
        <mxCell id="f9Q4ZX0UJmkfABaI8b5P-19" value="门诊诊断&lt;br&gt;门诊处方" style="rounded=1;whiteSpace=wrap;html=1;absoluteArcSize=1;arcSize=14;strokeWidth=2;" vertex="1" parent="f9Q4ZX0UJmkfABaI8b5P-1">
          <mxGeometry x="-1953" y="5039.5" width="100" height="100" as="geometry" />
        </mxCell>
        <mxCell id="f9Q4ZX0UJmkfABaI8b5P-20" style="edgeStyle=orthogonalEdgeStyle;rounded=1;orthogonalLoop=1;jettySize=auto;html=1;" edge="1" parent="f9Q4ZX0UJmkfABaI8b5P-1" source="f9Q4ZX0UJmkfABaI8b5P-21" target="f9Q4ZX0UJmkfABaI8b5P-114">
          <mxGeometry relative="1" as="geometry" />
        </mxCell>
        <mxCell id="f9Q4ZX0UJmkfABaI8b5P-21" value="住院管理" style="rounded=1;whiteSpace=wrap;html=1;absoluteArcSize=1;arcSize=14;strokeWidth=2;" vertex="1" parent="f9Q4ZX0UJmkfABaI8b5P-1">
          <mxGeometry x="-1652.5" y="5073.25" width="95" height="31.5" as="geometry" />
        </mxCell>
        <mxCell id="f9Q4ZX0UJmkfABaI8b5P-22" style="edgeStyle=orthogonalEdgeStyle;rounded=1;sketch=0;orthogonalLoop=1;jettySize=auto;html=1;entryX=0.5;entryY=0;entryDx=0;entryDy=0;" edge="1" parent="f9Q4ZX0UJmkfABaI8b5P-1" source="f9Q4ZX0UJmkfABaI8b5P-24" target="f9Q4ZX0UJmkfABaI8b5P-38">
          <mxGeometry relative="1" as="geometry" />
        </mxCell>
        <mxCell id="f9Q4ZX0UJmkfABaI8b5P-23" style="edgeStyle=orthogonalEdgeStyle;curved=0;rounded=1;sketch=0;orthogonalLoop=1;jettySize=auto;html=1;entryX=0.5;entryY=1;entryDx=0;entryDy=0;dashed=1;startArrow=none;startFill=0;" edge="1" parent="f9Q4ZX0UJmkfABaI8b5P-1" source="f9Q4ZX0UJmkfABaI8b5P-24" target="f9Q4ZX0UJmkfABaI8b5P-94">
          <mxGeometry relative="1" as="geometry">
            <Array as="points">
              <mxPoint x="-1469" y="4994" />
              <mxPoint x="-1566" y="4994" />
            </Array>
          </mxGeometry>
        </mxCell>
        <mxCell id="f9Q4ZX0UJmkfABaI8b5P-24" value="医嘱处方" style="rounded=1;whiteSpace=wrap;html=1;absoluteArcSize=1;arcSize=14;strokeWidth=2;" vertex="1" parent="f9Q4ZX0UJmkfABaI8b5P-1">
          <mxGeometry x="-1352.75" y="5036.75" width="101" height="53.5" as="geometry" />
        </mxCell>
        <mxCell id="f9Q4ZX0UJmkfABaI8b5P-25" value="电子病历" style="rounded=1;whiteSpace=wrap;html=1;absoluteArcSize=1;arcSize=14;strokeWidth=2;" vertex="1" parent="f9Q4ZX0UJmkfABaI8b5P-1">
          <mxGeometry x="-1351.75" y="5101.75" width="100" height="47" as="geometry" />
        </mxCell>
        <mxCell id="f9Q4ZX0UJmkfABaI8b5P-26" style="edgeStyle=orthogonalEdgeStyle;rounded=1;sketch=0;orthogonalLoop=1;jettySize=auto;html=1;" edge="1" parent="f9Q4ZX0UJmkfABaI8b5P-1" source="f9Q4ZX0UJmkfABaI8b5P-28" target="f9Q4ZX0UJmkfABaI8b5P-24">
          <mxGeometry relative="1" as="geometry" />
        </mxCell>
        <mxCell id="f9Q4ZX0UJmkfABaI8b5P-27" style="edgeStyle=orthogonalEdgeStyle;rounded=1;sketch=0;orthogonalLoop=1;jettySize=auto;html=1;" edge="1" parent="f9Q4ZX0UJmkfABaI8b5P-1" source="f9Q4ZX0UJmkfABaI8b5P-28" target="f9Q4ZX0UJmkfABaI8b5P-25">
          <mxGeometry relative="1" as="geometry" />
        </mxCell>
        <mxCell id="f9Q4ZX0UJmkfABaI8b5P-28" value="患者列表" style="rounded=1;whiteSpace=wrap;html=1;absoluteArcSize=1;arcSize=14;strokeWidth=2;" vertex="1" parent="f9Q4ZX0UJmkfABaI8b5P-1">
          <mxGeometry x="-1491.75" y="5081.25" width="95" height="31.5" as="geometry" />
        </mxCell>
        <mxCell id="f9Q4ZX0UJmkfABaI8b5P-29" style="edgeStyle=orthogonalEdgeStyle;rounded=1;sketch=0;orthogonalLoop=1;jettySize=auto;html=1;entryX=0.5;entryY=1;entryDx=0;entryDy=0;" edge="1" parent="f9Q4ZX0UJmkfABaI8b5P-1" source="f9Q4ZX0UJmkfABaI8b5P-30" target="f9Q4ZX0UJmkfABaI8b5P-36">
          <mxGeometry relative="1" as="geometry" />
        </mxCell>
        <mxCell id="f9Q4ZX0UJmkfABaI8b5P-30" value="预缴计费，每日自动扣费" style="rounded=1;whiteSpace=wrap;html=1;absoluteArcSize=1;arcSize=14;strokeWidth=2;" vertex="1" parent="f9Q4ZX0UJmkfABaI8b5P-1">
          <mxGeometry x="-1346.75" y="5199.75" width="252" height="36" as="geometry" />
        </mxCell>
        <mxCell id="f9Q4ZX0UJmkfABaI8b5P-31" style="edgeStyle=orthogonalEdgeStyle;rounded=1;sketch=0;orthogonalLoop=1;jettySize=auto;html=1;" edge="1" parent="f9Q4ZX0UJmkfABaI8b5P-1" source="f9Q4ZX0UJmkfABaI8b5P-32" target="f9Q4ZX0UJmkfABaI8b5P-34">
          <mxGeometry relative="1" as="geometry" />
        </mxCell>
        <mxCell id="f9Q4ZX0UJmkfABaI8b5P-32" value="收费" style="rounded=1;whiteSpace=wrap;html=1;absoluteArcSize=1;arcSize=14;strokeWidth=2;" vertex="1" parent="f9Q4ZX0UJmkfABaI8b5P-1">
          <mxGeometry x="-1950.5" y="5167" width="95" height="31.5" as="geometry" />
        </mxCell>
        <mxCell id="f9Q4ZX0UJmkfABaI8b5P-33" style="edgeStyle=orthogonalEdgeStyle;rounded=1;sketch=0;orthogonalLoop=1;jettySize=auto;html=1;entryX=0.5;entryY=0;entryDx=0;entryDy=0;" edge="1" parent="f9Q4ZX0UJmkfABaI8b5P-1" source="f9Q4ZX0UJmkfABaI8b5P-34" target="f9Q4ZX0UJmkfABaI8b5P-40">
          <mxGeometry relative="1" as="geometry" />
        </mxCell>
        <mxCell id="f9Q4ZX0UJmkfABaI8b5P-34" value="领药退药" style="rounded=1;whiteSpace=wrap;html=1;absoluteArcSize=1;arcSize=14;strokeWidth=2;" vertex="1" parent="f9Q4ZX0UJmkfABaI8b5P-1">
          <mxGeometry x="-1950.5" y="5222" width="95" height="31.5" as="geometry" />
        </mxCell>
        <mxCell id="f9Q4ZX0UJmkfABaI8b5P-35" style="edgeStyle=orthogonalEdgeStyle;rounded=0;orthogonalLoop=1;jettySize=auto;html=1;entryX=0.5;entryY=1;entryDx=0;entryDy=0;" edge="1" parent="f9Q4ZX0UJmkfABaI8b5P-1" source="f9Q4ZX0UJmkfABaI8b5P-36" target="f9Q4ZX0UJmkfABaI8b5P-108">
          <mxGeometry relative="1" as="geometry" />
        </mxCell>
        <mxCell id="f9Q4ZX0UJmkfABaI8b5P-36" value="出院审核" style="rounded=1;whiteSpace=wrap;html=1;absoluteArcSize=1;arcSize=14;strokeWidth=2;" vertex="1" parent="f9Q4ZX0UJmkfABaI8b5P-1">
          <mxGeometry x="-1069.25" y="5152.75" width="95" height="31.5" as="geometry" />
        </mxCell>
        <mxCell id="f9Q4ZX0UJmkfABaI8b5P-37" style="edgeStyle=orthogonalEdgeStyle;rounded=1;sketch=0;orthogonalLoop=1;jettySize=auto;html=1;" edge="1" parent="f9Q4ZX0UJmkfABaI8b5P-1" source="f9Q4ZX0UJmkfABaI8b5P-38" target="f9Q4ZX0UJmkfABaI8b5P-43">
          <mxGeometry relative="1" as="geometry" />
        </mxCell>
        <mxCell id="f9Q4ZX0UJmkfABaI8b5P-38" value="医嘱执行" style="rounded=1;whiteSpace=wrap;html=1;absoluteArcSize=1;arcSize=14;strokeWidth=2;" vertex="1" parent="f9Q4ZX0UJmkfABaI8b5P-1">
          <mxGeometry x="-1208.75" y="5083.75" width="95" height="31.5" as="geometry" />
        </mxCell>
        <mxCell id="f9Q4ZX0UJmkfABaI8b5P-39" style="edgeStyle=orthogonalEdgeStyle;rounded=1;sketch=0;orthogonalLoop=1;jettySize=auto;html=1;" edge="1" parent="f9Q4ZX0UJmkfABaI8b5P-1" source="f9Q4ZX0UJmkfABaI8b5P-40" target="f9Q4ZX0UJmkfABaI8b5P-41">
          <mxGeometry relative="1" as="geometry" />
        </mxCell>
        <mxCell id="f9Q4ZX0UJmkfABaI8b5P-40" value="输液执行" style="rounded=1;whiteSpace=wrap;html=1;absoluteArcSize=1;arcSize=14;strokeWidth=2;" vertex="1" parent="f9Q4ZX0UJmkfABaI8b5P-1">
          <mxGeometry x="-1950.5" y="5288.25" width="95" height="31.5" as="geometry" />
        </mxCell>
        <mxCell id="f9Q4ZX0UJmkfABaI8b5P-41" value="end" style="strokeWidth=2;html=1;shape=mxgraph.flowchart.terminator;whiteSpace=wrap;rounded=0;sketch=0;" vertex="1" parent="f9Q4ZX0UJmkfABaI8b5P-1">
          <mxGeometry x="-1953" y="5344" width="100" height="60" as="geometry" />
        </mxCell>
        <mxCell id="f9Q4ZX0UJmkfABaI8b5P-42" value="end" style="strokeWidth=2;html=1;shape=mxgraph.flowchart.terminator;whiteSpace=wrap;rounded=0;sketch=0;" vertex="1" parent="f9Q4ZX0UJmkfABaI8b5P-1">
          <mxGeometry x="-928.75" y="5069" width="100" height="60" as="geometry" />
        </mxCell>
        <mxCell id="f9Q4ZX0UJmkfABaI8b5P-43" value="药房发药" style="rounded=1;whiteSpace=wrap;html=1;absoluteArcSize=1;arcSize=14;strokeWidth=2;" vertex="1" parent="f9Q4ZX0UJmkfABaI8b5P-1">
          <mxGeometry x="-1208.75" y="5152.75" width="95" height="31.5" as="geometry" />
        </mxCell>
        <mxCell id="f9Q4ZX0UJmkfABaI8b5P-44" value="住院医生站" style="shape=parallelogram;perimeter=parallelogramPerimeter;whiteSpace=wrap;html=1;fixedSize=1;fillColor=#f8cecc;strokeColor=#b85450;" vertex="1" parent="f9Q4ZX0UJmkfABaI8b5P-1">
          <mxGeometry x="-2192" y="4871" width="107" height="44" as="geometry" />
        </mxCell>
        <mxCell id="f9Q4ZX0UJmkfABaI8b5P-45" value="门诊护士站" style="shape=parallelogram;perimeter=parallelogramPerimeter;whiteSpace=wrap;html=1;fixedSize=1;fillColor=#e1d5e7;strokeColor=#9673a6;" vertex="1" parent="f9Q4ZX0UJmkfABaI8b5P-1">
          <mxGeometry x="-2107" y="4871" width="107" height="44" as="geometry" />
        </mxCell>
        <mxCell id="f9Q4ZX0UJmkfABaI8b5P-46" style="edgeStyle=orthogonalEdgeStyle;curved=0;rounded=1;sketch=0;orthogonalLoop=1;jettySize=auto;html=1;" edge="1" parent="f9Q4ZX0UJmkfABaI8b5P-1" source="f9Q4ZX0UJmkfABaI8b5P-47" target="f9Q4ZX0UJmkfABaI8b5P-50">
          <mxGeometry relative="1" as="geometry" />
        </mxCell>
        <mxCell id="f9Q4ZX0UJmkfABaI8b5P-47" value="start" style="strokeWidth=2;html=1;shape=mxgraph.flowchart.start_1;whiteSpace=wrap;" vertex="1" parent="f9Q4ZX0UJmkfABaI8b5P-1">
          <mxGeometry x="-2425" y="5580" width="100" height="60" as="geometry" />
        </mxCell>
        <mxCell id="f9Q4ZX0UJmkfABaI8b5P-48" style="edgeStyle=orthogonalEdgeStyle;curved=0;rounded=1;sketch=0;orthogonalLoop=1;jettySize=auto;html=1;" edge="1" parent="f9Q4ZX0UJmkfABaI8b5P-1" source="f9Q4ZX0UJmkfABaI8b5P-50" target="f9Q4ZX0UJmkfABaI8b5P-52">
          <mxGeometry relative="1" as="geometry" />
        </mxCell>
        <mxCell id="f9Q4ZX0UJmkfABaI8b5P-49" style="edgeStyle=orthogonalEdgeStyle;rounded=0;orthogonalLoop=1;jettySize=auto;html=1;entryX=0;entryY=0.5;entryDx=0;entryDy=0;" edge="1" parent="f9Q4ZX0UJmkfABaI8b5P-1" source="f9Q4ZX0UJmkfABaI8b5P-50" target="f9Q4ZX0UJmkfABaI8b5P-57">
          <mxGeometry relative="1" as="geometry" />
        </mxCell>
        <mxCell id="f9Q4ZX0UJmkfABaI8b5P-50" value="药物信息" style="rounded=1;whiteSpace=wrap;html=1;absoluteArcSize=1;arcSize=14;strokeWidth=2;" vertex="1" parent="f9Q4ZX0UJmkfABaI8b5P-1">
          <mxGeometry x="-2252" y="5553" width="95" height="31.5" as="geometry" />
        </mxCell>
        <mxCell id="f9Q4ZX0UJmkfABaI8b5P-51" style="edgeStyle=orthogonalEdgeStyle;curved=0;rounded=1;sketch=0;orthogonalLoop=1;jettySize=auto;html=1;entryX=0.5;entryY=0;entryDx=0;entryDy=0;" edge="1" parent="f9Q4ZX0UJmkfABaI8b5P-1" source="f9Q4ZX0UJmkfABaI8b5P-52" target="f9Q4ZX0UJmkfABaI8b5P-61">
          <mxGeometry relative="1" as="geometry" />
        </mxCell>
        <mxCell id="f9Q4ZX0UJmkfABaI8b5P-52" value="厂商管理" style="rounded=1;whiteSpace=wrap;html=1;absoluteArcSize=1;arcSize=14;strokeWidth=2;" vertex="1" parent="f9Q4ZX0UJmkfABaI8b5P-1">
          <mxGeometry x="-2246" y="5656.75" width="95" height="31.5" as="geometry" />
        </mxCell>
        <mxCell id="f9Q4ZX0UJmkfABaI8b5P-53" value="住院护士站" style="shape=parallelogram;perimeter=parallelogramPerimeter;whiteSpace=wrap;html=1;fixedSize=1;fillColor=#dae8fc;strokeColor=#6c8ebf;" vertex="1" parent="f9Q4ZX0UJmkfABaI8b5P-1">
          <mxGeometry x="-2020" y="4871" width="107" height="44" as="geometry" />
        </mxCell>
        <mxCell id="f9Q4ZX0UJmkfABaI8b5P-54" value="住院管理" style="shape=parallelogram;perimeter=parallelogramPerimeter;whiteSpace=wrap;html=1;fixedSize=1;fillColor=#d5e8d4;strokeColor=#82b366;" vertex="1" parent="f9Q4ZX0UJmkfABaI8b5P-1">
          <mxGeometry x="-1933" y="4871" width="107" height="44" as="geometry" />
        </mxCell>
        <mxCell id="f9Q4ZX0UJmkfABaI8b5P-55" value="药房管理" style="shape=parallelogram;perimeter=parallelogramPerimeter;whiteSpace=wrap;html=1;fixedSize=1;fillColor=#d5e8d4;strokeColor=#82b366;" vertex="1" parent="f9Q4ZX0UJmkfABaI8b5P-1">
          <mxGeometry x="-1875.5" y="5482" width="107" height="44" as="geometry" />
        </mxCell>
        <mxCell id="f9Q4ZX0UJmkfABaI8b5P-56" value="药库管理" style="shape=parallelogram;perimeter=parallelogramPerimeter;whiteSpace=wrap;html=1;fixedSize=1;fillColor=#dae8fc;strokeColor=#6c8ebf;" vertex="1" parent="f9Q4ZX0UJmkfABaI8b5P-1">
          <mxGeometry x="-2059.25" y="5481" width="107" height="44" as="geometry" />
        </mxCell>
        <mxCell id="f9Q4ZX0UJmkfABaI8b5P-57" value="入库" style="rounded=1;whiteSpace=wrap;html=1;absoluteArcSize=1;arcSize=14;strokeWidth=2;" vertex="1" parent="f9Q4ZX0UJmkfABaI8b5P-1">
          <mxGeometry x="-2056" y="5558" width="95" height="31.5" as="geometry" />
        </mxCell>
        <mxCell id="f9Q4ZX0UJmkfABaI8b5P-58" style="edgeStyle=orthogonalEdgeStyle;curved=0;rounded=1;sketch=0;orthogonalLoop=1;jettySize=auto;html=1;entryX=0;entryY=0.5;entryDx=0;entryDy=0;" edge="1" parent="f9Q4ZX0UJmkfABaI8b5P-1" source="f9Q4ZX0UJmkfABaI8b5P-59" target="f9Q4ZX0UJmkfABaI8b5P-68">
          <mxGeometry relative="1" as="geometry" />
        </mxCell>
        <mxCell id="f9Q4ZX0UJmkfABaI8b5P-59" value="出库" style="rounded=1;whiteSpace=wrap;html=1;absoluteArcSize=1;arcSize=14;strokeWidth=2;" vertex="1" parent="f9Q4ZX0UJmkfABaI8b5P-1">
          <mxGeometry x="-2056" y="5591.25" width="95" height="31.5" as="geometry" />
        </mxCell>
        <mxCell id="f9Q4ZX0UJmkfABaI8b5P-60" style="edgeStyle=orthogonalEdgeStyle;curved=0;rounded=1;sketch=0;orthogonalLoop=1;jettySize=auto;html=1;entryX=0;entryY=0.5;entryDx=0;entryDy=0;dashed=1;startArrow=none;startFill=0;exitX=1;exitY=0.5;exitDx=0;exitDy=0;" edge="1" parent="f9Q4ZX0UJmkfABaI8b5P-1" source="f9Q4ZX0UJmkfABaI8b5P-50" target="f9Q4ZX0UJmkfABaI8b5P-96">
          <mxGeometry relative="1" as="geometry">
            <Array as="points">
              <mxPoint x="-2125" y="5578" />
              <mxPoint x="-2125" y="5867" />
            </Array>
          </mxGeometry>
        </mxCell>
        <mxCell id="f9Q4ZX0UJmkfABaI8b5P-61" value="药品控制" style="rounded=1;whiteSpace=wrap;html=1;absoluteArcSize=1;arcSize=14;strokeWidth=2;" vertex="1" parent="f9Q4ZX0UJmkfABaI8b5P-1">
          <mxGeometry x="-2246" y="5721" width="95" height="31.5" as="geometry" />
        </mxCell>
        <mxCell id="f9Q4ZX0UJmkfABaI8b5P-62" value="调拨" style="rounded=1;whiteSpace=wrap;html=1;absoluteArcSize=1;arcSize=14;strokeWidth=2;" vertex="1" parent="f9Q4ZX0UJmkfABaI8b5P-1">
          <mxGeometry x="-2056" y="5622.75" width="95" height="31.5" as="geometry" />
        </mxCell>
        <mxCell id="f9Q4ZX0UJmkfABaI8b5P-63" value="跨域调拨" style="rounded=1;whiteSpace=wrap;html=1;absoluteArcSize=1;arcSize=14;strokeWidth=2;" vertex="1" parent="f9Q4ZX0UJmkfABaI8b5P-1">
          <mxGeometry x="-2056" y="5713" width="95" height="31.5" as="geometry" />
        </mxCell>
        <mxCell id="f9Q4ZX0UJmkfABaI8b5P-64" value="跨域预览" style="rounded=1;whiteSpace=wrap;html=1;absoluteArcSize=1;arcSize=14;strokeWidth=2;" vertex="1" parent="f9Q4ZX0UJmkfABaI8b5P-1">
          <mxGeometry x="-2056" y="5745" width="95" height="31.5" as="geometry" />
        </mxCell>
        <mxCell id="f9Q4ZX0UJmkfABaI8b5P-65" value="盘点" style="rounded=1;whiteSpace=wrap;html=1;absoluteArcSize=1;arcSize=14;strokeWidth=2;" vertex="1" parent="f9Q4ZX0UJmkfABaI8b5P-1">
          <mxGeometry x="-2056" y="5654.25" width="95" height="31.5" as="geometry" />
        </mxCell>
        <mxCell id="f9Q4ZX0UJmkfABaI8b5P-66" style="edgeStyle=orthogonalEdgeStyle;curved=0;rounded=1;sketch=0;orthogonalLoop=1;jettySize=auto;html=1;entryX=0;entryY=0.5;entryDx=0;entryDy=0;" edge="1" parent="f9Q4ZX0UJmkfABaI8b5P-1" source="f9Q4ZX0UJmkfABaI8b5P-68" target="f9Q4ZX0UJmkfABaI8b5P-73">
          <mxGeometry relative="1" as="geometry" />
        </mxCell>
        <mxCell id="f9Q4ZX0UJmkfABaI8b5P-67" style="edgeStyle=orthogonalEdgeStyle;curved=0;rounded=1;sketch=0;orthogonalLoop=1;jettySize=auto;html=1;entryX=0.5;entryY=0;entryDx=0;entryDy=0;" edge="1" parent="f9Q4ZX0UJmkfABaI8b5P-1" source="f9Q4ZX0UJmkfABaI8b5P-68" target="f9Q4ZX0UJmkfABaI8b5P-76">
          <mxGeometry relative="1" as="geometry" />
        </mxCell>
        <mxCell id="f9Q4ZX0UJmkfABaI8b5P-68" value="入库" style="rounded=1;whiteSpace=wrap;html=1;absoluteArcSize=1;arcSize=14;strokeWidth=2;" vertex="1" parent="f9Q4ZX0UJmkfABaI8b5P-1">
          <mxGeometry x="-1872" y="5558" width="95" height="31.5" as="geometry" />
        </mxCell>
        <mxCell id="f9Q4ZX0UJmkfABaI8b5P-69" value="出库" style="rounded=1;whiteSpace=wrap;html=1;absoluteArcSize=1;arcSize=14;strokeWidth=2;" vertex="1" parent="f9Q4ZX0UJmkfABaI8b5P-1">
          <mxGeometry x="-1872" y="5591.25" width="95" height="31.5" as="geometry" />
        </mxCell>
        <mxCell id="f9Q4ZX0UJmkfABaI8b5P-70" value="调拨" style="rounded=1;whiteSpace=wrap;html=1;absoluteArcSize=1;arcSize=14;strokeWidth=2;" vertex="1" parent="f9Q4ZX0UJmkfABaI8b5P-1">
          <mxGeometry x="-1872" y="5622.75" width="95" height="31.5" as="geometry" />
        </mxCell>
        <mxCell id="f9Q4ZX0UJmkfABaI8b5P-71" value="盘点" style="rounded=1;whiteSpace=wrap;html=1;absoluteArcSize=1;arcSize=14;strokeWidth=2;" vertex="1" parent="f9Q4ZX0UJmkfABaI8b5P-1">
          <mxGeometry x="-1872" y="5654.25" width="95" height="31.5" as="geometry" />
        </mxCell>
        <mxCell id="f9Q4ZX0UJmkfABaI8b5P-72" style="edgeStyle=orthogonalEdgeStyle;curved=0;rounded=1;sketch=0;orthogonalLoop=1;jettySize=auto;html=1;entryX=1;entryY=0.5;entryDx=0;entryDy=0;" edge="1" parent="f9Q4ZX0UJmkfABaI8b5P-1" source="f9Q4ZX0UJmkfABaI8b5P-73" target="f9Q4ZX0UJmkfABaI8b5P-74">
          <mxGeometry relative="1" as="geometry">
            <Array as="points">
              <mxPoint x="-1567" y="5609.5" />
              <mxPoint x="-1567" y="5641" />
            </Array>
          </mxGeometry>
        </mxCell>
        <mxCell id="f9Q4ZX0UJmkfABaI8b5P-73" value="门诊发药" style="rounded=1;whiteSpace=wrap;html=1;absoluteArcSize=1;arcSize=14;strokeWidth=2;" vertex="1" parent="f9Q4ZX0UJmkfABaI8b5P-1">
          <mxGeometry x="-1716" y="5593.75" width="95" height="31.5" as="geometry" />
        </mxCell>
        <mxCell id="f9Q4ZX0UJmkfABaI8b5P-74" value="门诊退药" style="rounded=1;whiteSpace=wrap;html=1;absoluteArcSize=1;arcSize=14;strokeWidth=2;" vertex="1" parent="f9Q4ZX0UJmkfABaI8b5P-1">
          <mxGeometry x="-1716" y="5625.25" width="95" height="31.5" as="geometry" />
        </mxCell>
        <mxCell id="f9Q4ZX0UJmkfABaI8b5P-75" style="edgeStyle=orthogonalEdgeStyle;curved=0;rounded=1;sketch=0;orthogonalLoop=1;jettySize=auto;html=1;entryX=1;entryY=0.5;entryDx=0;entryDy=0;exitX=1;exitY=0.5;exitDx=0;exitDy=0;" edge="1" parent="f9Q4ZX0UJmkfABaI8b5P-1" source="f9Q4ZX0UJmkfABaI8b5P-76" target="f9Q4ZX0UJmkfABaI8b5P-77">
          <mxGeometry relative="1" as="geometry">
            <Array as="points">
              <mxPoint x="-1489" y="5610" />
              <mxPoint x="-1384" y="5610" />
              <mxPoint x="-1384" y="5641" />
            </Array>
          </mxGeometry>
        </mxCell>
        <mxCell id="f9Q4ZX0UJmkfABaI8b5P-76" value="住院发药" style="rounded=1;whiteSpace=wrap;html=1;absoluteArcSize=1;arcSize=14;strokeWidth=2;" vertex="1" parent="f9Q4ZX0UJmkfABaI8b5P-1">
          <mxGeometry x="-1537" y="5593.75" width="95" height="31.5" as="geometry" />
        </mxCell>
        <mxCell id="f9Q4ZX0UJmkfABaI8b5P-77" value="住院退药" style="rounded=1;whiteSpace=wrap;html=1;absoluteArcSize=1;arcSize=14;strokeWidth=2;" vertex="1" parent="f9Q4ZX0UJmkfABaI8b5P-1">
          <mxGeometry x="-1537" y="5625.25" width="95" height="31.5" as="geometry" />
        </mxCell>
        <mxCell id="f9Q4ZX0UJmkfABaI8b5P-78" style="edgeStyle=orthogonalEdgeStyle;curved=0;rounded=1;sketch=0;orthogonalLoop=1;jettySize=auto;html=1;entryX=0;entryY=0.5;entryDx=0;entryDy=0;" edge="1" parent="f9Q4ZX0UJmkfABaI8b5P-1" source="f9Q4ZX0UJmkfABaI8b5P-79" target="f9Q4ZX0UJmkfABaI8b5P-81">
          <mxGeometry relative="1" as="geometry" />
        </mxCell>
        <mxCell id="f9Q4ZX0UJmkfABaI8b5P-79" value="start" style="strokeWidth=2;html=1;shape=mxgraph.flowchart.start_1;whiteSpace=wrap;" vertex="1" parent="f9Q4ZX0UJmkfABaI8b5P-1">
          <mxGeometry x="-2422" y="5991" width="100" height="60" as="geometry" />
        </mxCell>
        <mxCell id="f9Q4ZX0UJmkfABaI8b5P-80" style="edgeStyle=orthogonalEdgeStyle;curved=0;rounded=1;sketch=0;orthogonalLoop=1;jettySize=auto;html=1;entryX=0;entryY=0.5;entryDx=0;entryDy=0;" edge="1" parent="f9Q4ZX0UJmkfABaI8b5P-1" source="f9Q4ZX0UJmkfABaI8b5P-81" target="f9Q4ZX0UJmkfABaI8b5P-83">
          <mxGeometry relative="1" as="geometry" />
        </mxCell>
        <mxCell id="f9Q4ZX0UJmkfABaI8b5P-81" value="挂号计费" style="rounded=1;whiteSpace=wrap;html=1;absoluteArcSize=1;arcSize=14;strokeWidth=2;" vertex="1" parent="f9Q4ZX0UJmkfABaI8b5P-1">
          <mxGeometry x="-2256" y="6005" width="95" height="31.5" as="geometry" />
        </mxCell>
        <mxCell id="f9Q4ZX0UJmkfABaI8b5P-82" style="edgeStyle=orthogonalEdgeStyle;curved=0;rounded=1;sketch=0;orthogonalLoop=1;jettySize=auto;html=1;entryX=0;entryY=0.5;entryDx=0;entryDy=0;" edge="1" parent="f9Q4ZX0UJmkfABaI8b5P-1" source="f9Q4ZX0UJmkfABaI8b5P-83" target="f9Q4ZX0UJmkfABaI8b5P-85">
          <mxGeometry relative="1" as="geometry" />
        </mxCell>
        <mxCell id="f9Q4ZX0UJmkfABaI8b5P-83" value="库房入库计费" style="rounded=1;whiteSpace=wrap;html=1;absoluteArcSize=1;arcSize=14;strokeWidth=2;" vertex="1" parent="f9Q4ZX0UJmkfABaI8b5P-1">
          <mxGeometry x="-2111" y="6005" width="95" height="31.5" as="geometry" />
        </mxCell>
        <mxCell id="f9Q4ZX0UJmkfABaI8b5P-84" style="edgeStyle=orthogonalEdgeStyle;curved=0;rounded=1;sketch=0;orthogonalLoop=1;jettySize=auto;html=1;entryX=0;entryY=0.5;entryDx=0;entryDy=0;" edge="1" parent="f9Q4ZX0UJmkfABaI8b5P-1" source="f9Q4ZX0UJmkfABaI8b5P-85" target="f9Q4ZX0UJmkfABaI8b5P-87">
          <mxGeometry relative="1" as="geometry" />
        </mxCell>
        <mxCell id="f9Q4ZX0UJmkfABaI8b5P-85" value="门诊处方计费" style="rounded=1;whiteSpace=wrap;html=1;absoluteArcSize=1;arcSize=14;strokeWidth=2;" vertex="1" parent="f9Q4ZX0UJmkfABaI8b5P-1">
          <mxGeometry x="-1953" y="6005" width="95" height="31.5" as="geometry" />
        </mxCell>
        <mxCell id="f9Q4ZX0UJmkfABaI8b5P-86" value="门诊处方收费" style="rounded=1;whiteSpace=wrap;html=1;absoluteArcSize=1;arcSize=14;strokeWidth=2;" vertex="1" parent="f9Q4ZX0UJmkfABaI8b5P-1">
          <mxGeometry x="-1953" y="6053" width="95" height="31.5" as="geometry" />
        </mxCell>
        <mxCell id="f9Q4ZX0UJmkfABaI8b5P-87" value="住院处方计费" style="rounded=1;whiteSpace=wrap;html=1;absoluteArcSize=1;arcSize=14;strokeWidth=2;" vertex="1" parent="f9Q4ZX0UJmkfABaI8b5P-1">
          <mxGeometry x="-1775" y="6005" width="95" height="31.5" as="geometry" />
        </mxCell>
        <mxCell id="f9Q4ZX0UJmkfABaI8b5P-88" style="edgeStyle=orthogonalEdgeStyle;curved=0;rounded=1;sketch=0;orthogonalLoop=1;jettySize=auto;html=1;entryX=1.01;entryY=0.43;entryDx=0;entryDy=0;entryPerimeter=0;startArrow=none;startFill=0;dashed=1;" edge="1" parent="f9Q4ZX0UJmkfABaI8b5P-1" source="f9Q4ZX0UJmkfABaI8b5P-89" target="f9Q4ZX0UJmkfABaI8b5P-96">
          <mxGeometry relative="1" as="geometry">
            <Array as="points">
              <mxPoint x="-1583" y="6066" />
              <mxPoint x="-1583" y="5860" />
            </Array>
          </mxGeometry>
        </mxCell>
        <mxCell id="f9Q4ZX0UJmkfABaI8b5P-89" value="出院结算收费" style="rounded=1;whiteSpace=wrap;html=1;absoluteArcSize=1;arcSize=14;strokeWidth=2;" vertex="1" parent="f9Q4ZX0UJmkfABaI8b5P-1">
          <mxGeometry x="-1775" y="6050" width="95" height="31.5" as="geometry" />
        </mxCell>
        <mxCell id="f9Q4ZX0UJmkfABaI8b5P-90" style="edgeStyle=orthogonalEdgeStyle;curved=0;rounded=1;sketch=0;orthogonalLoop=1;jettySize=auto;html=1;entryX=0.25;entryY=0;entryDx=0;entryDy=0;startArrow=classic;startFill=1;" edge="1" parent="f9Q4ZX0UJmkfABaI8b5P-1" source="f9Q4ZX0UJmkfABaI8b5P-91" target="f9Q4ZX0UJmkfABaI8b5P-94">
          <mxGeometry relative="1" as="geometry" />
        </mxCell>
        <mxCell id="f9Q4ZX0UJmkfABaI8b5P-91" value="PACS影像处理" style="rounded=1;whiteSpace=wrap;html=1;absoluteArcSize=1;arcSize=14;strokeWidth=2;sketch=0;" vertex="1" parent="f9Q4ZX0UJmkfABaI8b5P-1">
          <mxGeometry x="-1682" y="4700" width="100" height="100" as="geometry" />
        </mxCell>
        <mxCell id="f9Q4ZX0UJmkfABaI8b5P-92" style="edgeStyle=orthogonalEdgeStyle;curved=0;rounded=1;sketch=0;orthogonalLoop=1;jettySize=auto;html=1;entryX=0.75;entryY=0;entryDx=0;entryDy=0;startArrow=classic;startFill=1;" edge="1" parent="f9Q4ZX0UJmkfABaI8b5P-1" source="f9Q4ZX0UJmkfABaI8b5P-93" target="f9Q4ZX0UJmkfABaI8b5P-94">
          <mxGeometry relative="1" as="geometry" />
        </mxCell>
        <mxCell id="f9Q4ZX0UJmkfABaI8b5P-93" value="LIS检验处理" style="rounded=1;whiteSpace=wrap;html=1;absoluteArcSize=1;arcSize=14;strokeWidth=2;sketch=0;" vertex="1" parent="f9Q4ZX0UJmkfABaI8b5P-1">
          <mxGeometry x="-1549" y="4700" width="100" height="100" as="geometry" />
        </mxCell>
        <mxCell id="f9Q4ZX0UJmkfABaI8b5P-94" value="数据适配与交互" style="rounded=1;whiteSpace=wrap;html=1;absoluteArcSize=1;arcSize=14;strokeWidth=2;" vertex="1" parent="f9Q4ZX0UJmkfABaI8b5P-1">
          <mxGeometry x="-1699" y="4863" width="266" height="34" as="geometry" />
        </mxCell>
        <mxCell id="f9Q4ZX0UJmkfABaI8b5P-95" value="财务管理" style="shape=parallelogram;perimeter=parallelogramPerimeter;whiteSpace=wrap;html=1;fixedSize=1;fillColor=#e1d5e7;strokeColor=#9673a6;" vertex="1" parent="f9Q4ZX0UJmkfABaI8b5P-1">
          <mxGeometry x="-2252" y="5931" width="107" height="44" as="geometry" />
        </mxCell>
        <mxCell id="f9Q4ZX0UJmkfABaI8b5P-96" value="医保计费划价&lt;br&gt;医保药物名录" style="rounded=1;whiteSpace=wrap;html=1;absoluteArcSize=1;arcSize=14;strokeWidth=2;sketch=0;" vertex="1" parent="f9Q4ZX0UJmkfABaI8b5P-1">
          <mxGeometry x="-1808" y="5817" width="100" height="100" as="geometry" />
        </mxCell>
        <mxCell id="f9Q4ZX0UJmkfABaI8b5P-97" value="收费|打印| &lt;br&gt;硬件接入" style="rounded=1;whiteSpace=wrap;html=1;absoluteArcSize=1;arcSize=14;strokeWidth=2;sketch=0;" vertex="1" parent="f9Q4ZX0UJmkfABaI8b5P-1">
          <mxGeometry x="-1295" y="5479.75" width="100" height="100" as="geometry" />
        </mxCell>
        <mxCell id="f9Q4ZX0UJmkfABaI8b5P-98" value="公卫触发 | 数据上报&amp;nbsp;" style="rounded=1;whiteSpace=wrap;html=1;absoluteArcSize=1;arcSize=14;strokeWidth=2;sketch=0;" vertex="1" parent="f9Q4ZX0UJmkfABaI8b5P-1">
          <mxGeometry x="-1147" y="5479.75" width="100" height="100" as="geometry" />
        </mxCell>
        <mxCell id="f9Q4ZX0UJmkfABaI8b5P-99" value="家庭医生 | 合理用药&amp;nbsp;" style="rounded=1;whiteSpace=wrap;html=1;absoluteArcSize=1;arcSize=14;strokeWidth=2;sketch=0;" vertex="1" parent="f9Q4ZX0UJmkfABaI8b5P-1">
          <mxGeometry x="-999" y="5479.75" width="100" height="100" as="geometry" />
        </mxCell>
        <mxCell id="f9Q4ZX0UJmkfABaI8b5P-100" value="转诊与会诊" style="rounded=1;whiteSpace=wrap;html=1;absoluteArcSize=1;arcSize=14;strokeWidth=2;sketch=0;" vertex="1" parent="f9Q4ZX0UJmkfABaI8b5P-1">
          <mxGeometry x="-861" y="5479.75" width="100" height="100" as="geometry" />
        </mxCell>
        <mxCell id="f9Q4ZX0UJmkfABaI8b5P-101" value="合理用药 | 药物接口映射" style="rounded=1;whiteSpace=wrap;html=1;absoluteArcSize=1;arcSize=14;strokeWidth=2;sketch=0;" vertex="1" parent="f9Q4ZX0UJmkfABaI8b5P-1">
          <mxGeometry x="-1402" y="4700" width="100" height="100" as="geometry" />
        </mxCell>
        <mxCell id="f9Q4ZX0UJmkfABaI8b5P-102" value="智能诊断提醒" style="rounded=1;whiteSpace=wrap;html=1;absoluteArcSize=1;arcSize=14;strokeWidth=2;sketch=0;" vertex="1" parent="f9Q4ZX0UJmkfABaI8b5P-1">
          <mxGeometry x="-1258.5" y="4700" width="100" height="100" as="geometry" />
        </mxCell>
        <mxCell id="f9Q4ZX0UJmkfABaI8b5P-103" value="药物名录合集：自累积" style="rounded=1;whiteSpace=wrap;html=1;absoluteArcSize=1;arcSize=14;strokeWidth=2;sketch=0;" vertex="1" parent="f9Q4ZX0UJmkfABaI8b5P-1">
          <mxGeometry x="-1955.5" y="5816" width="100" height="100" as="geometry" />
        </mxCell>
        <mxCell id="f9Q4ZX0UJmkfABaI8b5P-104" value="患者库" style="rounded=1;whiteSpace=wrap;html=1;absoluteArcSize=1;arcSize=14;strokeWidth=2;sketch=0;" vertex="1" parent="f9Q4ZX0UJmkfABaI8b5P-1">
          <mxGeometry x="-2258" y="5213.5" width="100" height="100" as="geometry" />
        </mxCell>
        <mxCell id="f9Q4ZX0UJmkfABaI8b5P-105" value="&lt;h1&gt;对外交互唯一性ID&lt;/h1&gt;&lt;p&gt;一般针对外部系统，要求的数据都有一个唯一性ID，用于关联事件或人物；比如：&lt;/p&gt;" style="text;html=1;strokeColor=none;fillColor=none;spacing=5;spacingTop=-20;whiteSpace=wrap;overflow=hidden;rounded=0;sketch=0;" vertex="1" parent="f9Q4ZX0UJmkfABaI8b5P-1">
          <mxGeometry x="-707" y="5488.75" width="312" height="123" as="geometry" />
        </mxCell>
        <mxCell id="f9Q4ZX0UJmkfABaI8b5P-106" style="edgeStyle=orthogonalEdgeStyle;rounded=0;orthogonalLoop=1;jettySize=auto;html=1;" edge="1" parent="f9Q4ZX0UJmkfABaI8b5P-1" source="f9Q4ZX0UJmkfABaI8b5P-108" target="f9Q4ZX0UJmkfABaI8b5P-42">
          <mxGeometry relative="1" as="geometry" />
        </mxCell>
        <mxCell id="f9Q4ZX0UJmkfABaI8b5P-107" style="edgeStyle=orthogonalEdgeStyle;rounded=0;orthogonalLoop=1;jettySize=auto;html=1;entryX=0.5;entryY=1;entryDx=0;entryDy=0;" edge="1" parent="f9Q4ZX0UJmkfABaI8b5P-1" source="f9Q4ZX0UJmkfABaI8b5P-108" target="f9Q4ZX0UJmkfABaI8b5P-110">
          <mxGeometry relative="1" as="geometry" />
        </mxCell>
        <mxCell id="f9Q4ZX0UJmkfABaI8b5P-108" value="收费清结" style="rounded=1;whiteSpace=wrap;html=1;absoluteArcSize=1;arcSize=14;strokeWidth=2;" vertex="1" parent="f9Q4ZX0UJmkfABaI8b5P-1">
          <mxGeometry x="-1069.25" y="5082.5" width="95" height="31.5" as="geometry" />
        </mxCell>
        <mxCell id="f9Q4ZX0UJmkfABaI8b5P-109" style="edgeStyle=orthogonalEdgeStyle;rounded=1;orthogonalLoop=1;jettySize=auto;html=1;dashed=1;" edge="1" parent="f9Q4ZX0UJmkfABaI8b5P-1" source="f9Q4ZX0UJmkfABaI8b5P-110" target="f9Q4ZX0UJmkfABaI8b5P-24">
          <mxGeometry relative="1" as="geometry" />
        </mxCell>
        <mxCell id="f9Q4ZX0UJmkfABaI8b5P-110" value="病案管理" style="rounded=1;whiteSpace=wrap;html=1;absoluteArcSize=1;arcSize=14;strokeWidth=2;" vertex="1" parent="f9Q4ZX0UJmkfABaI8b5P-1">
          <mxGeometry x="-1069.25" y="4975" width="95" height="31.5" as="geometry" />
        </mxCell>
        <mxCell id="f9Q4ZX0UJmkfABaI8b5P-111" style="edgeStyle=orthogonalEdgeStyle;rounded=1;orthogonalLoop=1;jettySize=auto;html=1;" edge="1" parent="f9Q4ZX0UJmkfABaI8b5P-1" source="f9Q4ZX0UJmkfABaI8b5P-112" target="f9Q4ZX0UJmkfABaI8b5P-21">
          <mxGeometry relative="1" as="geometry" />
        </mxCell>
        <mxCell id="f9Q4ZX0UJmkfABaI8b5P-112" value="门诊住院申请" style="rounded=1;whiteSpace=wrap;html=1;absoluteArcSize=1;arcSize=14;strokeWidth=2;" vertex="1" parent="f9Q4ZX0UJmkfABaI8b5P-1">
          <mxGeometry x="-1803" y="5073.25" width="95" height="31.5" as="geometry" />
        </mxCell>
        <mxCell id="f9Q4ZX0UJmkfABaI8b5P-113" style="edgeStyle=orthogonalEdgeStyle;rounded=1;orthogonalLoop=1;jettySize=auto;html=1;" edge="1" parent="f9Q4ZX0UJmkfABaI8b5P-1" source="f9Q4ZX0UJmkfABaI8b5P-114" target="f9Q4ZX0UJmkfABaI8b5P-116">
          <mxGeometry relative="1" as="geometry" />
        </mxCell>
        <mxCell id="f9Q4ZX0UJmkfABaI8b5P-114" value="住院登记" style="rounded=1;whiteSpace=wrap;html=1;absoluteArcSize=1;arcSize=14;strokeWidth=2;" vertex="1" parent="f9Q4ZX0UJmkfABaI8b5P-1">
          <mxGeometry x="-1652.5" y="5124.5" width="95" height="31.5" as="geometry" />
        </mxCell>
        <mxCell id="f9Q4ZX0UJmkfABaI8b5P-115" style="edgeStyle=orthogonalEdgeStyle;rounded=1;orthogonalLoop=1;jettySize=auto;html=1;entryX=0;entryY=0.5;entryDx=0;entryDy=0;" edge="1" parent="f9Q4ZX0UJmkfABaI8b5P-1" source="f9Q4ZX0UJmkfABaI8b5P-116" target="f9Q4ZX0UJmkfABaI8b5P-28">
          <mxGeometry relative="1" as="geometry" />
        </mxCell>
        <mxCell id="f9Q4ZX0UJmkfABaI8b5P-116" value="分配床位" style="rounded=1;whiteSpace=wrap;html=1;absoluteArcSize=1;arcSize=14;strokeWidth=2;" vertex="1" parent="f9Q4ZX0UJmkfABaI8b5P-1">
          <mxGeometry x="-1652.5" y="5178" width="95" height="31.5" as="geometry" />
        </mxCell>
        <mxCell id="f9Q4ZX0UJmkfABaI8b5P-117" value="电子病历" style="shape=parallelogram;perimeter=parallelogramPerimeter;whiteSpace=wrap;html=1;fixedSize=1;" vertex="1" parent="f9Q4ZX0UJmkfABaI8b5P-1">
          <mxGeometry x="-1143" y="5679.25" width="107" height="44" as="geometry" />
        </mxCell>
        <mxCell id="f9Q4ZX0UJmkfABaI8b5P-118" style="edgeStyle=orthogonalEdgeStyle;curved=0;rounded=1;sketch=0;orthogonalLoop=1;jettySize=auto;html=1;dashed=1;startArrow=none;startFill=0;exitX=1;exitY=0.5;exitDx=0;exitDy=0;exitPerimeter=0;" edge="1" parent="f9Q4ZX0UJmkfABaI8b5P-1" source="f9Q4ZX0UJmkfABaI8b5P-132" target="f9Q4ZX0UJmkfABaI8b5P-129">
          <mxGeometry relative="1" as="geometry">
            <mxPoint x="-1205" y="5815.25" as="sourcePoint" />
          </mxGeometry>
        </mxCell>
        <mxCell id="f9Q4ZX0UJmkfABaI8b5P-119" value="权限控制" style="rounded=1;whiteSpace=wrap;html=1;absoluteArcSize=1;arcSize=14;strokeWidth=2;" vertex="1" parent="f9Q4ZX0UJmkfABaI8b5P-1">
          <mxGeometry x="-986" y="5753.75" width="95" height="31.5" as="geometry" />
        </mxCell>
        <mxCell id="f9Q4ZX0UJmkfABaI8b5P-120" style="edgeStyle=orthogonalEdgeStyle;curved=0;rounded=1;sketch=0;orthogonalLoop=1;jettySize=auto;html=1;entryX=0.5;entryY=0;entryDx=0;entryDy=0;dashed=1;startArrow=none;startFill=0;" edge="1" parent="f9Q4ZX0UJmkfABaI8b5P-1" source="f9Q4ZX0UJmkfABaI8b5P-121" target="f9Q4ZX0UJmkfABaI8b5P-123">
          <mxGeometry relative="1" as="geometry" />
        </mxCell>
        <mxCell id="f9Q4ZX0UJmkfABaI8b5P-121" value="模板管理" style="rounded=1;whiteSpace=wrap;html=1;absoluteArcSize=1;arcSize=14;strokeWidth=2;" vertex="1" parent="f9Q4ZX0UJmkfABaI8b5P-1">
          <mxGeometry x="-1134" y="5893" width="95" height="31.5" as="geometry" />
        </mxCell>
        <mxCell id="f9Q4ZX0UJmkfABaI8b5P-122" style="edgeStyle=orthogonalEdgeStyle;curved=0;rounded=1;sketch=0;orthogonalLoop=1;jettySize=auto;html=1;dashed=1;startArrow=none;startFill=0;" edge="1" parent="f9Q4ZX0UJmkfABaI8b5P-1" source="f9Q4ZX0UJmkfABaI8b5P-123" target="f9Q4ZX0UJmkfABaI8b5P-124">
          <mxGeometry relative="1" as="geometry" />
        </mxCell>
        <mxCell id="f9Q4ZX0UJmkfABaI8b5P-123" value="病历日志" style="rounded=1;whiteSpace=wrap;html=1;absoluteArcSize=1;arcSize=14;strokeWidth=2;" vertex="1" parent="f9Q4ZX0UJmkfABaI8b5P-1">
          <mxGeometry x="-1134" y="5955.25" width="95" height="31.5" as="geometry" />
        </mxCell>
        <mxCell id="f9Q4ZX0UJmkfABaI8b5P-124" value="病历质控" style="rounded=1;whiteSpace=wrap;html=1;absoluteArcSize=1;arcSize=14;strokeWidth=2;" vertex="1" parent="f9Q4ZX0UJmkfABaI8b5P-1">
          <mxGeometry x="-1134" y="6005" width="95" height="31.5" as="geometry" />
        </mxCell>
        <mxCell id="f9Q4ZX0UJmkfABaI8b5P-125" style="edgeStyle=orthogonalEdgeStyle;curved=0;rounded=1;sketch=0;orthogonalLoop=1;jettySize=auto;html=1;dashed=1;startArrow=none;startFill=0;" edge="1" parent="f9Q4ZX0UJmkfABaI8b5P-1" source="f9Q4ZX0UJmkfABaI8b5P-129">
          <mxGeometry relative="1" as="geometry">
            <mxPoint x="-989" y="5769.75" as="targetPoint" />
          </mxGeometry>
        </mxCell>
        <mxCell id="f9Q4ZX0UJmkfABaI8b5P-126" style="edgeStyle=orthogonalEdgeStyle;curved=0;rounded=1;sketch=0;orthogonalLoop=1;jettySize=auto;html=1;entryX=0;entryY=0.5;entryDx=0;entryDy=0;dashed=1;startArrow=none;startFill=0;" edge="1" parent="f9Q4ZX0UJmkfABaI8b5P-1" source="f9Q4ZX0UJmkfABaI8b5P-129" target="f9Q4ZX0UJmkfABaI8b5P-130">
          <mxGeometry relative="1" as="geometry" />
        </mxCell>
        <mxCell id="f9Q4ZX0UJmkfABaI8b5P-127" style="edgeStyle=orthogonalEdgeStyle;curved=0;rounded=1;sketch=0;orthogonalLoop=1;jettySize=auto;html=1;entryX=0;entryY=0.5;entryDx=0;entryDy=0;dashed=1;startArrow=none;startFill=0;" edge="1" parent="f9Q4ZX0UJmkfABaI8b5P-1" source="f9Q4ZX0UJmkfABaI8b5P-129" target="f9Q4ZX0UJmkfABaI8b5P-131">
          <mxGeometry relative="1" as="geometry" />
        </mxCell>
        <mxCell id="f9Q4ZX0UJmkfABaI8b5P-128" style="edgeStyle=orthogonalEdgeStyle;curved=0;rounded=1;sketch=0;orthogonalLoop=1;jettySize=auto;html=1;entryX=0.5;entryY=0;entryDx=0;entryDy=0;dashed=1;startArrow=none;startFill=0;exitX=0.5;exitY=1;exitDx=0;exitDy=0;" edge="1" parent="f9Q4ZX0UJmkfABaI8b5P-1" source="f9Q4ZX0UJmkfABaI8b5P-129" target="f9Q4ZX0UJmkfABaI8b5P-121">
          <mxGeometry relative="1" as="geometry" />
        </mxCell>
        <mxCell id="f9Q4ZX0UJmkfABaI8b5P-129" value="&lt;span&gt;病历管理&lt;/span&gt;" style="rounded=1;whiteSpace=wrap;html=1;absoluteArcSize=1;arcSize=14;strokeWidth=2;sketch=0;" vertex="1" parent="f9Q4ZX0UJmkfABaI8b5P-1">
          <mxGeometry x="-1141" y="5757.75" width="109" height="115" as="geometry" />
        </mxCell>
        <mxCell id="f9Q4ZX0UJmkfABaI8b5P-130" value="病历分类与检索" style="rounded=1;whiteSpace=wrap;html=1;absoluteArcSize=1;arcSize=14;strokeWidth=2;" vertex="1" parent="f9Q4ZX0UJmkfABaI8b5P-1">
          <mxGeometry x="-986" y="5797.75" width="95" height="31.5" as="geometry" />
        </mxCell>
        <mxCell id="f9Q4ZX0UJmkfABaI8b5P-131" value="共享和多内容展示" style="rounded=1;whiteSpace=wrap;html=1;absoluteArcSize=1;arcSize=14;strokeWidth=2;" vertex="1" parent="f9Q4ZX0UJmkfABaI8b5P-1">
          <mxGeometry x="-986" y="5841.75" width="95" height="31.5" as="geometry" />
        </mxCell>
        <mxCell id="f9Q4ZX0UJmkfABaI8b5P-132" value="start" style="strokeWidth=2;html=1;shape=mxgraph.flowchart.start_1;whiteSpace=wrap;" vertex="1" parent="f9Q4ZX0UJmkfABaI8b5P-1">
          <mxGeometry x="-1316.5" y="5785.25" width="100" height="60" as="geometry" />
        </mxCell>
        <mxCell id="f9Q4ZX0UJmkfABaI8b5P-133" value="系统配置参数" style="rounded=1;whiteSpace=wrap;html=1;fontColor=#009900;" vertex="1" parent="f9Q4ZX0UJmkfABaI8b5P-1">
          <mxGeometry x="-317" y="5489.75" width="120" height="60" as="geometry" />
        </mxCell>
        <mxCell id="f9Q4ZX0UJmkfABaI8b5P-134" value="权限配置集合" style="rounded=1;whiteSpace=wrap;html=1;fontColor=#009900;" vertex="1" parent="f9Q4ZX0UJmkfABaI8b5P-1">
          <mxGeometry x="-317" y="5407.75" width="120" height="60" as="geometry" />
        </mxCell>
        <mxCell id="f9Q4ZX0UJmkfABaI8b5P-135" value="功能配置集合" style="rounded=1;whiteSpace=wrap;html=1;fontColor=#009900;" vertex="1" parent="f9Q4ZX0UJmkfABaI8b5P-1">
          <mxGeometry x="-317" y="5570.75" width="120" height="60" as="geometry" />
        </mxCell>
      </root>
    </mxGraphModel>
  </diagram>
</mxfile>
